<svg version="1.1" xmlns="http://www.w3.org/2000/svg" style="display: block;" viewBox="0 0 1800 1800" width="450" height="450" preserveAspectRatio="none">
<defs>
	<linearGradient id="Gradient1" gradientUnits="userSpaceOnUse" x1="281.809" y1="1297.89" x2="165.605" y2="1342.57">
		<stop class="stop0" offset="0" stop-opacity="1" stop-color="rgb(219,206,205)"/>
		<stop class="stop1" offset="1" stop-opacity="1" stop-color="rgb(233,234,233)"/>
	</linearGradient>
</defs>
<path transform="translate(0,0)" fill="rgb(0,0,0)" d="M 1367.38 258.291 C 1375.23 242.341 1386.42 230.075 1403.58 224.078 C 1409.72 221.933 1415.75 221.488 1422.37 219.026 C 1436.21 222.518 1444.9 225.765 1456.74 233.277 C 1461.08 236.035 1473.4 250.8 1476.17 250.405 C 1496.38 247.527 1516 246.688 1536.39 249.427 C 1553.03 251.662 1570.72 254.295 1586.67 259.787 C 1598.51 264.075 1609.84 270.002 1621.62 274.556 C 1626.49 272.165 1638.19 266.728 1641.97 263.972 C 1659 263.824 1674.92 262.654 1690.98 268.859 C 1710.28 290.75 1722.23 294.095 1720.78 328.931 C 1719.77 353.29 1708.62 355.796 1696.14 373.647 C 1694.77 384.857 1695.98 403.277 1696.37 415.248 C 1702.41 423.742 1707.54 423.758 1714.19 429.898 C 1747.34 460.478 1744.41 498.489 1744.28 538.39 L 1744.13 625.432 L 1744.14 976.439 L 1744.15 1278.36 L 1744.29 1359.45 C 1744.32 1372.14 1744.97 1393.28 1743.35 1404.99 C 1740.18 1427.99 1726.63 1454.25 1707.39 1467.76 C 1693.81 1477.3 1677.16 1484.41 1660.37 1484.77 C 1624.56 1485.53 1588.29 1485.08 1552.44 1485.07 L 1350.56 1485.07 L 668.414 1484.21 L 290.024 1485.11 L 191.641 1485.15 C 179.975 1485.15 146.984 1486.09 137.551 1483.83 C 114.839 1478.41 91.0005 1463.69 79.4427 1442.72 C 72.5477 1430.2 67.5757 1425.33 66.6207 1410.12 C 65.5306 1392.77 65.341 1375.52 65.0651 1358.32 C 64.7221 1329.79 64.2195 1301.27 63.5573 1272.75 C 60.4664 1134.88 62.2325 998.778 62.0444 861.123 L 61.1081 612.629 C 61.339 567.938 60.6981 522.325 67.2649 478.063 C 70.8544 453.87 86.3392 435.654 106.249 422.483 C 118.611 414.306 124.561 413.301 137.737 409.437 C 156.142 407.572 181.162 408.279 200.141 408.307 L 299.32 408.36 L 636.485 408.897 L 1138.34 408.274 L 1271.89 408.263 C 1298.12 408.243 1325.87 407.725 1351.96 408.491 C 1352.03 391.092 1351.31 377.52 1356.15 360.612 C 1359.49 348.193 1369.84 325.489 1368.49 314.676 C 1367.5 306.689 1365.21 292.989 1364.13 283.652 C 1364.5 274.843 1364.99 266.801 1367.38 258.291 z"/>
<path transform="translate(0,0)" fill="rgb(254,254,254)" d="M 174.541 435.433 C 219.839 433.975 270.11 435.027 315.789 435.026 L 572.407 435.028 L 1350.5 435.09 C 1346.88 439.554 1342.86 444.4 1339.68 449.093 C 1312.27 489.555 1354.07 545.747 1397.49 549.928 C 1415.15 551.628 1434.4 544.414 1442.38 527.638 C 1446.21 519.574 1446.82 514.811 1447.24 506.164 C 1475.36 516.82 1531.89 527.192 1561.75 526.656 C 1561.08 539.625 1560.13 552.721 1567.49 563.679 C 1590.93 598.896 1646.46 581.938 1668.67 553.823 C 1686.79 530.868 1692.88 504.702 1667.57 483.85 C 1676.17 470.101 1682.83 460.413 1688.76 445.262 C 1689.28 445.772 1689.81 446.284 1690.33 446.799 C 1701.05 457.354 1712.08 469.77 1714.07 485.061 C 1717.73 513.134 1716.15 543.632 1716.16 572.05 L 1716.48 719.657 L 1716.56 1320.5 C 1716.74 1342.14 1718.49 1391.58 1712.85 1410.36 C 1710.26 1418.91 1705.86 1426.79 1699.94 1433.47 C 1680.71 1455.32 1655.6 1456.55 1628.3 1456.81 C 1604.69 1457.04 1581.06 1456.97 1557.44 1457 L 1396.86 1457.06 L 902.113 1457.08 L 406.614 1457.04 L 249.606 1456.98 C 218.937 1456.99 188.406 1457.34 157.897 1456.15 C 122.829 1454.78 94.7691 1432.16 93.3693 1395.94 C 92.3169 1368.71 92.6168 1342.2 92.9026 1314.94 L 93.0943 1233.03 L 93.1323 907.924 L 93.1381 634.193 L 93.0376 549.891 C 92.9794 519.053 88.3062 479.449 110.037 455.147 C 127.723 435.369 150.122 436.536 174.541 435.433 z"/>
<path transform="translate(0,0)" fill="rgb(97,95,98)" d="M 312.26 598.309 C 398.227 594.953 489.64 598.454 576.075 597.945 L 827.246 597.959 C 912.706 596.918 998.176 596.964 1083.63 598.099 C 1137.14 597.336 1190.64 597.121 1244.15 597.454 C 1279.9 597.513 1316.97 597.201 1352.58 598.296 L 1631.81 597.904 C 1631.63 621.246 1631.58 644.588 1631.68 667.93 C 1631.72 676.849 1631.26 692.313 1632 700.396 C 1634.98 710.637 1632.89 798.322 1631.37 811.846 C 1630.86 817.133 1631.11 815.767 1629.1 819.871 C 1625.31 827.609 1628.49 839.159 1626.87 849.215 C 1626.45 863.081 1626.33 905.95 1627.46 919.242 C 1628.03 921.238 1627.32 932.296 1626.39 933.758 C 1625.8 949.421 1626.71 968.412 1626.95 984.338 C 1627.16 998.212 1626.72 1018 1627.99 1031.42 L 1626.93 1042.65 C 1626.88 1065.13 1627.32 1087.62 1628.25 1110.08 C 1628.58 1118.9 1629.91 1134.49 1629.7 1142.48 C 1630.52 1164.14 1633.37 1363.23 1630.9 1368.99 C 1624.52 1370.86 1360.68 1371.29 1349.03 1369.21 L 1343.93 1369.2 C 1340.52 1370.37 1087.16 1370.78 1080.93 1369.18 L 1076.6 1369.75 C 1019.03 1370.85 959.364 1370.07 901.658 1370.03 L 849.071 1369.99 C 841.795 1369.98 827.511 1370.34 820.822 1369.21 L 817.746 1369.29 C 812.321 1371.2 721.356 1370.12 709.78 1370.12 C 576.79 1370.57 443.798 1370.18 310.813 1368.95 C 283.693 1370.06 242.212 1372.48 215.655 1370.95 C 207.943 1371.11 178.283 1373.39 173.793 1370.58 C 174.831 1349.19 172.798 1269.14 177.869 1254.42 C 179.637 1243.29 179.308 1207.35 179.372 1195.17 L 179.119 1062.37 L 179.081 598.906 C 185.382 598.481 191.677 598.242 197.991 598.256 C 235.981 598.339 274.294 597.338 312.26 598.309 z"/>
<path transform="translate(0,0)" fill="rgb(254,254,254)" d="M 1627.46 919.242 C 1628.03 921.238 1627.32 932.296 1626.39 933.758 C 1625.8 949.421 1626.71 968.412 1626.95 984.338 C 1627.16 998.212 1626.72 1018 1627.99 1031.42 L 1626.93 1042.65 C 1626.88 1065.13 1627.32 1087.62 1628.25 1110.08 C 1628.58 1118.9 1629.91 1134.49 1629.7 1142.48 C 1627.82 1143.22 1628.39 1142.6 1627.66 1143.98 C 1628.59 1180.78 1628.17 1219.88 1628.22 1256.82 C 1534.96 1255.9 1441.19 1257.64 1347.97 1256.62 C 1349.1 1225.03 1350.13 1176.98 1348.49 1145.18 C 1322.08 1143.85 1282.15 1145.22 1254.88 1145.29 L 1080.68 1145.7 C 1082.11 1112.76 1080.91 1071.71 1080.81 1038.26 C 1102.59 1039.28 1340.04 1039.09 1343.26 1037.92 C 1333.04 1035.5 1314.54 1035.73 1303.52 1035.56 C 1284.16 1035.28 1264.81 1035.11 1245.45 1035.07 C 1193.63 1034.93 1132.18 1033.57 1080.89 1035.85 L 1080.78 928.034 C 1153.35 929.332 1226.59 927.325 1299.22 927.996 C 1313.36 928.127 1329.36 927.087 1343.24 928.618 C 1345.64 928.058 1344.62 928.644 1346.11 926.439 C 1349.69 924.191 1348.51 925.331 1350.31 920.874 C 1356.25 919.315 1410.12 919.62 1418.48 919.657 C 1474.4 919.902 1530.07 919.176 1586.04 919.525 C 1595.13 919.582 1615.88 919.9 1626.09 920.401 C 1626.55 920.015 1627 919.629 1627.46 919.242 z"/>
<path transform="translate(0,0)" fill="rgb(114,192,191)" d="M 1627.46 919.242 C 1628.03 921.238 1627.32 932.296 1626.39 933.758 C 1625.8 949.421 1626.71 968.412 1626.95 984.338 C 1627.16 998.212 1626.72 1018 1627.99 1031.42 L 1626.93 1042.65 C 1562.75 1041.61 1496.73 1042.77 1432.36 1042.58 C 1412.68 1042.51 1393 1042.34 1373.33 1042.04 C 1370.54 1041.99 1351.61 1041.16 1350.41 1041.29 L 1349.56 1044.71 C 1348.73 1042.32 1349.95 1016.04 1350.16 1011.67 C 1350.95 986.115 1350.06 956.248 1349.93 930.363 C 1348.22 929.413 1345.66 929.572 1343.24 928.618 C 1345.64 928.058 1344.62 928.644 1346.11 926.439 C 1349.69 924.191 1348.51 925.331 1350.31 920.874 C 1356.25 919.315 1410.12 919.62 1418.48 919.657 C 1474.4 919.902 1530.07 919.176 1586.04 919.525 C 1595.13 919.582 1615.88 919.9 1626.09 920.401 C 1626.55 920.015 1627 919.629 1627.46 919.242 z"/>
<path transform="translate(0,0)" fill="rgb(246,239,231)" d="M 1350.16 1011.67 C 1350.54 1017.65 1350.78 1022.77 1350.8 1028.75 C 1402.47 1031.1 1454.69 1029.06 1506.41 1029.91 C 1546.4 1030.57 1588.23 1028.43 1627.99 1031.42 L 1626.93 1042.65 C 1562.75 1041.61 1496.73 1042.77 1432.36 1042.58 C 1412.68 1042.51 1393 1042.34 1373.33 1042.04 C 1370.54 1041.99 1351.61 1041.16 1350.41 1041.29 L 1349.56 1044.71 C 1348.73 1042.32 1349.95 1016.04 1350.16 1011.67 z"/>
<path transform="translate(0,0)" fill="rgb(246,239,231)" d="M 1627.46 919.242 C 1628.03 921.238 1627.32 932.296 1626.39 933.758 C 1624.73 930.737 1619.94 931.75 1615.69 931.759 L 1405.48 932.231 C 1396.95 932.217 1355.18 933.191 1349.93 930.363 C 1348.22 929.413 1345.66 929.572 1343.24 928.618 C 1345.64 928.058 1344.62 928.644 1346.11 926.439 C 1349.69 924.191 1348.51 925.331 1350.31 920.874 C 1356.25 919.315 1410.12 919.62 1418.48 919.657 C 1474.4 919.902 1530.07 919.176 1586.04 919.525 C 1595.13 919.582 1615.88 919.9 1626.09 920.401 C 1626.55 920.015 1627 919.629 1627.46 919.242 z"/>
<path transform="translate(0,0)" fill="rgb(114,192,191)" d="M 1349.56 1044.71 L 1350.41 1041.29 C 1351.61 1041.16 1370.54 1041.99 1373.33 1042.04 C 1393 1042.34 1412.68 1042.51 1432.36 1042.58 C 1496.73 1042.77 1562.75 1041.61 1626.93 1042.65 C 1626.88 1065.13 1627.32 1087.62 1628.25 1110.08 C 1628.58 1118.9 1629.91 1134.49 1629.7 1142.48 C 1627.82 1143.22 1628.39 1142.6 1627.66 1143.98 C 1624.71 1144.54 1609.56 1144.16 1605.71 1144.12 C 1589.55 1143.94 1573.39 1143.84 1557.22 1143.83 C 1489.75 1143.8 1417.05 1142.58 1349.98 1144.66 C 1349.72 1114.19 1351 1074.23 1349.56 1044.71 z"/>
<path transform="translate(0,0)" fill="rgb(254,254,254)" d="M 1348.43 601.756 C 1441.64 601.575 1536.04 600.163 1629.04 600.846 C 1628.16 629.401 1627.01 681.385 1629.73 709.213 L 1630.57 710.404 L 1631.46 709.642 L 1632 700.396 C 1634.98 710.637 1632.89 798.322 1631.37 811.846 C 1630.86 817.133 1631.11 815.767 1629.1 819.871 C 1625.31 827.609 1628.49 839.159 1626.87 849.215 C 1626.45 863.081 1626.33 905.95 1627.46 919.242 C 1627 919.629 1626.55 920.015 1626.09 920.401 C 1615.88 919.9 1595.13 919.582 1586.04 919.525 C 1530.07 919.176 1474.4 919.902 1418.48 919.657 C 1410.12 919.62 1356.25 919.315 1350.31 920.874 L 1350.08 819.79 C 1346.95 818.983 1341.39 819.183 1337.42 818.489 C 1341.37 818.423 1342.32 818.452 1346.11 817.589 L 1345.83 816.677 L 1341.98 815.191 C 1347.96 815.099 1347.66 815.624 1349.85 810.594 C 1350.54 802.436 1349.79 773.226 1349.74 763.953 C 1349.68 754.298 1349.77 714.599 1348.13 706.823 L 1348.63 706.378 C 1349.74 671.706 1347.87 636.262 1348.43 601.756 z"/>
<path transform="translate(0,0)" fill="rgb(114,192,191)" d="M 1349.85 810.594 C 1356.53 809.094 1387.28 809.61 1395.88 809.617 L 1492.55 809.72 L 1578.28 809.804 C 1589.01 809.805 1614.09 809.211 1624.25 810.529 C 1626.75 811.415 1628.75 811.526 1631.37 811.846 C 1630.86 817.133 1631.11 815.767 1629.1 819.871 C 1625.31 827.609 1628.49 839.159 1626.87 849.215 C 1626.45 863.081 1626.33 905.95 1627.46 919.242 C 1627 919.629 1626.55 920.015 1626.09 920.401 C 1615.88 919.9 1595.13 919.582 1586.04 919.525 C 1530.07 919.176 1474.4 919.902 1418.48 919.657 C 1410.12 919.62 1356.25 919.315 1350.31 920.874 L 1350.08 819.79 C 1346.95 818.983 1341.39 819.183 1337.42 818.489 C 1341.37 818.423 1342.32 818.452 1346.11 817.589 L 1345.83 816.677 L 1341.98 815.191 C 1347.96 815.099 1347.66 815.624 1349.85 810.594 z"/>
<path transform="translate(0,0)" fill="rgb(246,239,231)" d="M 1349.85 810.594 C 1356.53 809.094 1387.28 809.61 1395.88 809.617 L 1492.55 809.72 L 1578.28 809.804 C 1589.01 809.805 1614.09 809.211 1624.25 810.529 C 1626.75 811.415 1628.75 811.526 1631.37 811.846 C 1630.86 817.133 1631.11 815.767 1629.1 819.871 C 1625.31 827.609 1628.49 839.159 1626.87 849.215 C 1625.94 841.575 1626.16 828.729 1626.07 820.687 C 1561.83 820.08 1496.69 821.416 1432.42 820.836 C 1417.68 820.703 1358.96 822.208 1350.08 819.79 C 1346.95 818.983 1341.39 819.183 1337.42 818.489 C 1341.37 818.423 1342.32 818.452 1346.11 817.589 L 1345.83 816.677 L 1341.98 815.191 C 1347.96 815.099 1347.66 815.624 1349.85 810.594 z"/>
<path transform="translate(0,0)" fill="rgb(114,192,191)" d="M 1632 700.396 C 1634.98 710.637 1632.89 798.322 1631.37 811.846 C 1628.75 811.526 1626.75 811.415 1624.25 810.529 C 1614.09 809.211 1589.01 809.805 1578.28 809.804 L 1492.55 809.72 L 1395.88 809.617 C 1387.28 809.61 1356.53 809.094 1349.85 810.594 C 1350.54 802.436 1349.79 773.226 1349.74 763.953 C 1349.68 754.298 1349.77 714.599 1348.13 706.823 L 1348.63 706.378 C 1358.35 713.173 1560.95 705.15 1589.63 707.353 C 1598.13 708.006 1616.11 706.682 1624.82 708.577 L 1626.02 710.709 L 1628.34 711.199 L 1629.73 709.213 L 1630.57 710.404 L 1631.46 709.642 L 1632 700.396 z"/>
<path transform="translate(0,0)" fill="rgb(246,239,231)" d="M 1632 700.396 C 1634.98 710.637 1632.89 798.322 1631.37 811.846 C 1628.75 811.526 1626.75 811.415 1624.25 810.529 L 1625.12 809.951 C 1627.1 805.164 1625.51 720.769 1624.82 708.577 L 1626.02 710.709 L 1628.34 711.199 L 1629.73 709.213 L 1630.57 710.404 L 1631.46 709.642 L 1632 700.396 z"/>
<path transform="translate(0,0)" fill="rgb(97,95,98)" d="M 1486.23 625.751 C 1486.39 625.876 1486.58 625.975 1486.71 626.126 C 1489.99 629.819 1488.37 673.433 1487.59 680.802 L 1485.61 677.856 C 1484.64 669.403 1484.15 631.965 1486.23 625.751 z"/>
<path transform="translate(0,0)" fill="rgb(254,254,254)" d="M 311.679 1259.72 C 366.524 1260.68 425.659 1259.5 480.853 1259.49 L 819.008 1259.28 L 818.531 1329.98 C 818.508 1337.06 818.939 1360.71 817.791 1366.41 L 817.746 1369.29 C 812.321 1371.2 721.356 1370.12 709.78 1370.12 C 576.79 1370.57 443.798 1370.18 310.813 1368.95 L 310.269 1366.81 L 312.464 1364.91 C 313.586 1359.47 312.911 1356.8 312.04 1351.46 C 311.497 1319.08 310.625 1292.59 311.679 1259.72 z"/>
<path transform="translate(0,0)" fill="rgb(158,154,154)" d="M 312.464 1364.91 C 354.569 1366.63 402.971 1365.61 445.539 1365.64 L 676.907 1365.72 L 765.378 1365.54 C 779.429 1365.52 804.381 1364.98 817.791 1366.41 L 817.746 1369.29 C 812.321 1371.2 721.356 1370.12 709.78 1370.12 C 576.79 1370.57 443.798 1370.18 310.813 1368.95 L 310.269 1366.81 L 312.464 1364.91 z"/>
<path transform="translate(0,0)" fill="rgb(254,254,254)" d="M 1348.69 1259.3 C 1382.89 1260.18 1417.42 1258.9 1451.64 1259.31 C 1510.57 1260 1569.91 1258.29 1628.79 1259.43 C 1628.48 1271.73 1629.57 1361.94 1627.99 1365.96 L 1628.67 1368.44 L 1630.9 1368.99 C 1624.52 1370.86 1360.68 1371.29 1349.03 1369.21 C 1349.14 1368.77 1349.11 1366.49 1349.11 1365.95 C 1346.57 1361.02 1348.71 1271.9 1348.69 1259.3 z"/>
<path transform="translate(0,0)" fill="rgb(158,154,154)" d="M 1349.11 1365.95 C 1442.07 1365.24 1535.03 1365.24 1627.99 1365.96 L 1628.67 1368.44 L 1630.9 1368.99 C 1624.52 1370.86 1360.68 1371.29 1349.03 1369.21 C 1349.14 1368.77 1349.11 1366.49 1349.11 1365.95 z"/>
<path transform="translate(0,0)" fill="rgb(254,254,254)" d="M 1105.08 814.019 C 1133.43 811.987 1177.99 813.303 1207.91 813.487 C 1248.16 813.734 1302.98 811.811 1341.98 815.191 L 1345.83 816.677 L 1346.11 817.589 C 1342.32 818.452 1341.37 818.423 1337.42 818.489 C 1341.39 819.183 1346.95 818.983 1350.08 819.79 L 1350.31 920.874 C 1348.51 925.331 1349.69 924.191 1346.11 926.439 C 1322.37 923.785 1283.85 925.402 1259.03 925.02 C 1200 924.111 1139.71 925.942 1080.74 925.253 C 1081.54 890.008 1081.1 853.045 1080.62 817.761 C 1082.51 812.972 1098.63 815.74 1105.08 814.019 z"/>
<path transform="translate(0,0)" fill="rgb(158,154,154)" d="M 1105.08 814.019 C 1133.43 811.987 1177.99 813.303 1207.91 813.487 C 1248.16 813.734 1302.98 811.811 1341.98 815.191 L 1345.83 816.677 L 1346.11 817.589 C 1342.32 818.452 1341.37 818.423 1337.42 818.489 C 1332.41 817.532 1285.12 818.308 1276.11 818.103 C 1212.04 816.648 1144.41 819.779 1080.62 817.761 C 1082.51 812.972 1098.63 815.74 1105.08 814.019 z"/>
<path transform="translate(0,0)" fill="rgb(254,254,254)" d="M 312.26 598.309 C 398.227 594.953 489.64 598.454 576.075 597.945 L 827.246 597.959 C 912.706 596.918 998.176 596.964 1083.63 598.099 L 1081.33 599.292 L 1078.49 599.346 L 1077.88 600.62 C 1078.97 633.608 1077.93 671.48 1078.14 704.949 C 1050.27 703.51 1016.53 704.426 988.079 704.33 C 932.62 703.845 877.157 703.917 821.7 704.544 C 821.786 692.574 820.824 607.332 823.129 602.074 L 822.623 600.026 C 819.716 598.579 821.234 598.856 817.882 599.348 L 818.157 600.648 C 810.213 602.796 575.019 602.755 568.377 601.143 L 568.485 600.166 L 567.12 598.998 L 564.83 599.703 L 564.699 601.296 C 551.316 603.495 321.375 602.894 315.184 601.061 L 315.36 599.619 L 312.26 598.309 z"/>
<path transform="translate(0,0)" fill="rgb(158,154,154)" d="M 312.26 598.309 C 398.227 594.953 489.64 598.454 576.075 597.945 L 827.246 597.959 C 912.706 596.918 998.176 596.964 1083.63 598.099 L 1081.33 599.292 L 1078.49 599.346 L 1077.88 600.62 C 1069.6 604.017 851.827 602.055 823.129 602.074 L 822.623 600.026 C 819.716 598.579 821.234 598.856 817.882 599.348 L 818.157 600.648 C 810.213 602.796 575.019 602.755 568.377 601.143 L 568.485 600.166 L 567.12 598.998 L 564.83 599.703 L 564.699 601.296 C 551.316 603.495 321.375 602.894 315.184 601.061 L 315.36 599.619 L 312.26 598.309 z"/>
<path transform="translate(0,0)" fill="rgb(97,95,98)" d="M 948.201 625.292 L 950.189 626.252 C 951.677 630.959 951.265 672.72 951.283 680.88 L 949.251 679.9 C 947.083 676.08 948.138 632.732 948.201 625.292 z"/>
<path transform="translate(0,0)" fill="rgb(254,254,254)" d="M 1080.77 1259.15 C 1103.44 1260.84 1143.3 1259.41 1167.04 1259.37 L 1345.83 1259.34 C 1345.62 1271 1345.68 1362.88 1344.02 1365.97 C 1343.99 1366.62 1343.84 1368.65 1343.93 1369.2 C 1340.52 1370.37 1087.16 1370.78 1080.93 1369.18 C 1081.19 1368.36 1081.08 1366.88 1081.08 1365.92 C 1079.75 1362.01 1080.87 1271.5 1080.77 1259.15 z"/>
<path transform="translate(0,0)" fill="rgb(158,154,154)" d="M 1081.08 1365.92 C 1168.73 1365.18 1256.37 1365.19 1344.02 1365.97 C 1343.99 1366.62 1343.84 1368.65 1343.93 1369.2 C 1340.52 1370.37 1087.16 1370.78 1080.93 1369.18 C 1081.19 1368.36 1081.08 1366.88 1081.08 1365.92 z"/>
<path transform="translate(0,0)" fill="rgb(254,254,254)" d="M 1080.87 706.922 C 1092.96 707.297 1106.16 707.268 1118.32 707.005 C 1194.41 705.364 1272.2 709.289 1348.13 706.823 C 1349.77 714.599 1349.68 754.298 1349.74 763.953 C 1349.79 773.226 1350.54 802.436 1349.85 810.594 C 1347.66 815.624 1347.96 815.099 1341.98 815.191 C 1302.98 811.811 1248.16 813.734 1207.91 813.487 C 1177.99 813.303 1133.43 811.987 1105.08 814.019 C 1097.08 814.171 1088.75 814.061 1080.72 814.075 C 1080.99 778.358 1081.04 742.64 1080.87 706.922 z"/>
<path transform="translate(0,0)" fill="rgb(254,254,254)" d="M 821.97 1259.12 C 866.671 1261.13 923.977 1259.47 970.128 1259.47 L 1040.43 1259.44 C 1050.16 1259.43 1068.54 1259.84 1077.87 1259.11 C 1077.97 1274.49 1079.41 1356.83 1076.36 1366.49 L 1076.6 1369.75 C 1019.03 1370.85 959.364 1370.07 901.658 1370.03 L 849.071 1369.99 C 841.795 1369.98 827.511 1370.34 820.822 1369.21 C 822.878 1367.7 821.997 1368.62 823.012 1366 C 820.775 1360.57 821.983 1271.65 821.97 1259.12 z"/>
<path transform="translate(0,0)" fill="rgb(158,154,154)" d="M 823.012 1366 C 878.717 1365.23 934.429 1365.06 990.137 1365.5 L 1042.64 1365.46 C 1050.87 1365.47 1068.65 1365.33 1076.36 1366.49 L 1076.6 1369.75 C 1019.03 1370.85 959.364 1370.07 901.658 1370.03 L 849.071 1369.99 C 841.795 1369.98 827.511 1370.34 820.822 1369.21 C 822.878 1367.7 821.997 1368.62 823.012 1366 z"/>
<path transform="translate(0,0)" fill="rgb(254,254,254)" d="M 1083.63 598.099 C 1137.14 597.336 1190.64 597.121 1244.15 597.454 C 1279.9 597.513 1316.97 597.201 1352.58 598.296 C 1349.92 598.647 1347.77 598.8 1345.21 599.692 L 1344.83 600.349 C 1345.41 635.349 1344.97 670.512 1346.19 705.435 C 1315.1 703.538 1278.51 704.195 1247.06 704.167 C 1191.59 703.861 1136.11 703.999 1080.64 704.581 C 1081.27 671.197 1080.78 634.717 1081.94 601.981 L 1081.33 599.292 L 1083.63 598.099 z"/>
<path transform="translate(0,0)" fill="rgb(158,154,154)" d="M 1083.63 598.099 C 1137.14 597.336 1190.64 597.121 1244.15 597.454 C 1279.9 597.513 1316.97 597.201 1352.58 598.296 C 1349.92 598.647 1347.77 598.8 1345.21 599.692 L 1344.83 600.349 C 1337.07 602.339 1272.62 601.913 1260.69 601.811 C 1201.4 601.303 1141.15 602.698 1081.94 601.981 L 1081.33 599.292 L 1083.63 598.099 z"/>
<path transform="translate(0,0)" fill="rgb(97,95,98)" d="M 1212.16 624.768 C 1212.86 625.491 1213.56 626.213 1214.26 626.936 C 1215.25 644.457 1215.12 662.682 1215.7 680.189 C 1214.55 679.838 1214.42 679.595 1213.38 678.902 C 1211.42 670.603 1211.38 634.315 1212.16 624.768 z"/>
<path transform="translate(0,0)" fill="rgb(254,254,254)" d="M 315.184 601.061 C 321.375 602.894 551.316 603.495 564.699 601.296 C 566.279 629.458 564.652 674.444 564.575 704.18 C 480.992 703.732 397.407 703.894 313.826 704.667 C 313.999 685.59 314.047 666.513 313.97 647.435 C 313.934 638.454 313.205 608.096 315.184 601.061 z"/>
<path transform="translate(0,0)" fill="rgb(114,117,118)" d="M 439.055 625.558 L 441.064 626.797 C 442.698 631.687 442.382 675.178 441.05 681.518 C 439.443 680.591 439.85 680.765 438.555 679.325 C 437.579 670.742 437.242 632.259 439.055 625.558 z"/>
<path transform="translate(0,0)" fill="rgb(254,254,254)" d="M 568.377 601.143 C 575.019 602.755 810.213 602.796 818.157 600.648 C 818.952 635.022 817.487 670.19 818.492 704.613 C 790.552 703.43 756.595 704.457 728.133 704.394 C 674.511 703.917 620.885 703.87 567.262 704.252 C 568.793 671.2 566.207 632.724 568.377 601.143 z"/>
<path transform="translate(0,0)" fill="rgb(97,95,98)" d="M 692.283 625.396 C 693.479 625.925 693.525 626.165 694.549 627.066 C 695.876 636.897 695.427 668.127 695.675 679.998 L 694.351 679.758 C 690.688 675.924 692.202 633.551 692.283 625.396 z"/>
<path transform="translate(0,0)" fill="rgb(114,192,191)" d="M 177.869 1254.42 L 180.141 1256.07 L 181.401 1255.78 C 181.647 1252.52 181.902 1251.57 182.735 1248.37 L 183.373 1260.01 L 272.919 1260.16 C 280.214 1260.15 305.686 1260.53 311.178 1259.38 L 311.679 1259.72 C 310.625 1292.59 311.497 1319.08 312.04 1351.46 C 312.911 1356.8 313.586 1359.47 312.464 1364.91 L 310.269 1366.81 L 310.813 1368.95 C 283.693 1370.06 242.212 1372.48 215.655 1370.95 C 207.943 1371.11 178.283 1373.39 173.793 1370.58 C 174.831 1349.19 172.798 1269.14 177.869 1254.42 z"/>
<path transform="translate(0,0)" fill="url(#Gradient1)" d="M 177.869 1254.42 L 180.141 1256.07 L 181.401 1255.78 C 181.647 1252.52 181.902 1251.57 182.735 1248.37 L 183.373 1260.01 C 184.725 1294.7 184.887 1329.42 183.859 1364.12 C 203.913 1359.04 247.793 1365.57 270.188 1363.3 C 275.049 1362.8 308.155 1361.88 311.406 1362.52 C 312.425 1358.54 312.115 1355.55 312.04 1351.46 C 312.911 1356.8 313.586 1359.47 312.464 1364.91 L 310.269 1366.81 L 310.813 1368.95 C 283.693 1370.06 242.212 1372.48 215.655 1370.95 C 207.943 1371.11 178.283 1373.39 173.793 1370.58 C 174.831 1349.19 172.798 1269.14 177.869 1254.42 z"/>
<path transform="translate(0,0)" fill="rgb(246,239,231)" d="M 173.793 1370.58 C 180.545 1367.7 206.164 1369.27 214.634 1369.86 L 215.655 1370.95 C 207.943 1371.11 178.283 1373.39 173.793 1370.58 z"/>
<path transform="translate(0,0)" fill="rgb(254,254,254)" d="M 310.423 1148.39 C 310.12 1185.39 310.371 1222.39 311.178 1259.38 C 305.686 1260.53 280.214 1260.15 272.919 1260.16 L 183.373 1260.01 L 182.735 1248.37 C 181.368 1216.83 182.634 1180.52 181.912 1148.06 C 222.651 1148.07 270.329 1149.44 310.423 1148.39 z"/>
<path transform="translate(0,0)" fill="rgb(254,254,254)" d="M 310.849 706.313 L 313.77 707.575 C 342.368 705.671 389.14 706.982 418.66 707.026 L 601.458 706.974 L 748.798 707.172 C 763.476 707.156 805.05 705.826 818.077 706.999 L 818.812 708.563 C 820.048 728.883 818.975 753.077 819.44 773.726 C 819.644 782.799 819.942 810.351 818.616 817.694 C 819.505 853.49 817.97 889.732 818.978 926.064 C 805.02 924.323 777.792 925.018 762.96 925.026 L 665.795 925.098 L 313.908 925.489 C 313.926 890.589 313.21 852.887 314.001 818.227 L 314.207 817.076 C 312.927 815.143 312.621 814.99 311 813.283 C 312.063 808.998 311.251 766.882 310.843 760.559 C 310.093 745.671 310.822 721.791 310.849 706.313 z"/>
<path transform="translate(0,0)" fill="rgb(254,254,254)" d="M 314.001 818.227 C 347.924 816.919 390.11 818.087 424.808 818.091 L 680.36 818.075 C 724.118 818.079 775.441 819.365 818.616 817.694 C 819.505 853.49 817.97 889.732 818.978 926.064 C 805.02 924.323 777.792 925.018 762.96 925.026 L 665.795 925.098 L 313.908 925.489 C 313.926 890.589 313.21 852.887 314.001 818.227 z"/>
<path transform="translate(0,0)" fill="rgb(158,154,154)" d="M 818.107 813.967 C 817.728 785.657 816.798 735.348 818.812 708.563 C 820.048 728.883 818.975 753.077 819.44 773.726 C 819.644 782.799 819.942 810.351 818.616 817.694 C 775.441 819.365 724.118 818.079 680.36 818.075 L 424.808 818.091 C 390.11 818.087 347.924 816.919 314.001 818.227 L 314.207 817.076 L 315.725 815.911 L 314.953 813.993 C 401.184 813.317 487.418 813.176 573.651 813.572 C 655.136 813.139 736.624 813.27 818.107 813.967 z"/>
<path transform="translate(0,0)" fill="rgb(114,117,118)" d="M 310.849 706.313 L 313.77 707.575 C 314.444 720.532 312.674 808.941 314.953 813.993 L 315.725 815.911 L 314.207 817.076 C 312.927 815.143 312.621 814.99 311 813.283 C 312.063 808.998 311.251 766.882 310.843 760.559 C 310.093 745.671 310.822 721.791 310.849 706.313 z"/>
<path transform="translate(0,0)" fill="rgb(254,254,254)" d="M 821.925 707.093 C 905.705 707.919 994.244 707.795 1077.94 706.894 L 1077.84 813.809 L 1077.95 818.05 L 1077.99 925.304 C 992.643 924.704 907.291 924.763 821.943 925.482 L 821.797 817.974 L 823.275 816.677 L 822.799 814.504 C 820.776 809.318 821.91 719.745 821.925 707.093 z"/>
<path transform="translate(0,0)" fill="rgb(254,254,254)" d="M 821.925 707.093 C 905.705 707.919 994.244 707.795 1077.94 706.894 L 1077.84 813.809 C 1021.04 813.327 964.243 813.216 907.442 813.479 C 888.767 813.411 870.092 813.441 851.417 813.569 C 844.142 813.644 829.277 813.517 822.799 814.504 C 820.776 809.318 821.91 719.745 821.925 707.093 z"/>
<path transform="translate(0,0)" fill="rgb(158,154,154)" d="M 822.799 814.504 C 829.277 813.517 844.142 813.644 851.417 813.569 C 870.092 813.441 888.767 813.411 907.442 813.479 C 964.243 813.216 1021.04 813.327 1077.84 813.809 L 1077.95 818.05 C 994.719 816.094 905.69 818.619 821.797 817.974 L 823.275 816.677 L 822.799 814.504 z"/>
<path transform="translate(0,0)" fill="rgb(254,254,254)" d="M 388.765 1148.49 C 422.036 1147.96 457.538 1148.88 491.104 1148.88 L 698.505 1148.4 L 779.609 1148.59 C 789.512 1148.58 810.511 1149.05 819.218 1147.85 C 818.932 1184.24 818.919 1220.64 819.179 1257.04 C 797.42 1256.05 769.714 1256.8 747.5 1256.77 L 463.714 1256.84 L 372.069 1256.87 C 353.742 1256.89 331.884 1256.47 313.87 1257.79 C 314.045 1221.49 313.972 1185.18 313.65 1148.88 L 388.765 1148.49 z"/>
<path transform="translate(0,0)" fill="rgb(254,254,254)" d="M 313.842 928.118 C 333.158 928.961 358.02 928.115 377.848 928.143 L 511.201 928.27 C 612.243 928.326 718.222 929.822 819.053 927.854 C 818.891 950.929 818.86 974.006 818.962 997.082 C 818.995 1006.93 819.602 1027.05 818.672 1035.7 L 313.905 1036.14 L 313.842 928.118 z"/>
<path transform="translate(0,0)" fill="rgb(254,254,254)" d="M 792.745 1038.49 C 801.819 1038.46 810.63 1038.53 819.693 1037.83 C 818.723 1052.22 819.097 1070.68 819.048 1085.31 C 818.982 1105 818.585 1126.47 819.488 1146.06 C 761.582 1143.84 694.742 1145.6 635.947 1145.68 L 345.5 1145.66 L 313.872 1145.66 L 313.806 1038.97 L 599.312 1038.92 C 662.497 1038.87 729.82 1039.98 792.745 1038.49 z"/>
<path transform="translate(0,0)" fill="rgb(254,254,254)" d="M 1337.24 1147.55 C 1341.94 1147.41 1342.29 1146.6 1345.61 1148.62 C 1346.94 1157.42 1345.52 1168.64 1345.78 1177.58 C 1346.46 1200.59 1343.59 1235.31 1345.91 1256.99 C 1260.36 1255.98 1173.37 1256.71 1087.75 1256.84 C 1084.52 1256.92 1084.33 1257.07 1081.13 1256.12 C 1080.39 1253.54 1080.92 1224.96 1080.93 1220.6 L 1080.78 1148.38 C 1088.86 1148.76 1097.81 1148.62 1105.93 1148.42 C 1182.7 1146.55 1260.59 1150.4 1337.24 1147.55 z"/>
<path transform="translate(0,0)" fill="rgb(254,254,254)" d="M 181.925 707.062 L 266.388 706.923 C 279.436 706.899 298.657 707.469 310.849 706.313 C 310.822 721.791 310.093 745.671 310.843 760.559 C 311.251 766.882 312.063 808.998 311 813.283 C 312.031 834.047 311.265 857.998 311.382 878.993 C 311.441 889.581 311.894 913.784 310.836 923.482 L 310.582 924.522 C 308.427 926.033 282.969 925.106 278.273 925.085 L 181.87 925.144 C 182.159 890.974 183.036 851.728 181.655 817.85 L 183.909 815.992 L 182.753 814.35 C 181.265 808.373 181.951 782.745 181.99 774.634 C 182.147 752.11 182.125 729.585 181.925 707.062 z"/>
<path transform="translate(0,0)" fill="rgb(254,254,254)" d="M 181.925 707.062 L 266.388 706.923 C 279.436 706.899 298.657 707.469 310.849 706.313 C 310.822 721.791 310.093 745.671 310.843 760.559 C 309.591 776.938 310.227 797.507 310.486 814.025 C 278.999 813.355 247.503 813.211 216.011 813.591 C 210.523 813.654 187.148 813.585 182.753 814.35 C 181.265 808.373 181.951 782.745 181.99 774.634 C 182.147 752.11 182.125 729.585 181.925 707.062 z"/>
<path transform="translate(0,0)" fill="rgb(158,154,154)" d="M 310.486 814.025 C 310.227 797.507 309.591 776.938 310.843 760.559 C 311.251 766.882 312.063 808.998 311 813.283 C 312.031 834.047 311.265 857.998 311.382 878.993 C 311.441 889.581 311.894 913.784 310.836 923.482 C 309.749 916.002 310.145 895.113 310.149 887.013 L 310.08 817.844 C 284.544 818.225 258.663 818.052 233.087 818.072 C 216.654 818.084 197.833 818.598 181.655 817.85 L 183.909 815.992 L 182.753 814.35 C 187.148 813.585 210.523 813.654 216.011 813.591 C 247.503 813.211 278.999 813.355 310.486 814.025 z"/>
<path transform="translate(0,0)" fill="rgb(254,254,254)" d="M 822.136 1148.2 C 830.4 1148.83 843.979 1148.39 852.551 1148.35 L 908.698 1148.18 L 1077.84 1148.16 C 1078.87 1181.63 1077.55 1222.13 1077.97 1256.71 C 1074.57 1257.26 1059.04 1256.94 1054.66 1256.91 L 1005.43 1256.76 L 821.864 1256.77 L 822.136 1148.2 z"/>
<path transform="translate(0,0)" fill="rgb(254,254,254)" d="M 821.985 928.247 C 845.351 929.416 883.101 928.162 907.256 928.18 L 1078 927.781 C 1077.65 963.852 1077.66 999.925 1078.04 1036 C 1067.28 1035.73 1056.04 1035.8 1045.24 1035.92 C 971.146 1036.71 895.917 1033.02 821.974 1035.95 L 821.985 928.247 z"/>
<path transform="translate(0,0)" fill="rgb(254,254,254)" d="M 829.279 1038.44 C 839.638 1038.8 851.111 1038.76 861.524 1038.51 C 933.094 1036.83 1006.74 1041.71 1078.1 1038.01 C 1077.47 1073.39 1077.73 1108.55 1078 1143.91 C 1077.62 1144.51 1077.24 1145.11 1076.86 1145.7 L 1073.25 1145.97 C 1041.56 1144.91 1007.5 1145.42 975.706 1145.43 L 821.883 1145.52 C 822.077 1124.35 822.12 1103.17 822.012 1082 C 821.941 1069.49 821.29 1052.35 822.341 1040.17 C 824.297 1038.14 825.553 1038.77 829.279 1038.44 z"/>
<path transform="translate(0,0)" fill="rgb(254,254,254)" d="M 181.929 928.422 C 215.956 927.555 250.149 928.307 284.197 927.928 C 293.028 927.83 301.711 928.069 310.534 927.384 C 310.368 963.193 310.44 999.002 310.75 1034.81 L 310.433 1035.32 C 308.469 1036.75 195.214 1035.8 181.806 1035.97 C 182.157 1000.12 182.198 964.271 181.929 928.422 z"/>
<path transform="translate(0,0)" fill="rgb(254,254,254)" d="M 307.766 1038.51 L 310.159 1038.45 C 311.41 1041.53 310.526 1134.18 310.97 1146.42 C 272.851 1144.37 226.441 1145.18 187.75 1145.1 C 184.877 1145.2 184.8 1145.45 182.297 1144.2 C 181.407 1139.38 182.047 1116.8 182.067 1110.31 L 181.829 1038.99 L 307.766 1038.51 z"/>
<path transform="translate(0,0)" fill="rgb(254,254,254)" d="M 291.255 601.5 C 297.284 601.054 304.648 601.041 310.79 600.864 L 310.883 704.553 C 274.979 703.832 239.066 703.666 203.157 704.058 L 181.468 704.093 C 182.533 670.858 181.967 635.329 181.996 601.926 L 291.255 601.5 z"/>
<path transform="translate(0,0)" fill="rgb(254,254,254)" d="M 1414.86 246.199 C 1439.28 244.416 1450.55 254.954 1457.89 277.47 C 1503.67 272.815 1540.13 267.583 1585.47 286.647 C 1599.63 292.598 1612.79 300.502 1626.81 307.01 C 1637.92 294.927 1651.12 283.229 1669.01 286.955 C 1677.77 288.851 1685.43 294.125 1690.33 301.634 C 1696.11 310.533 1697.27 321.972 1695.03 332.245 C 1692.18 345.312 1676.96 354.272 1666.17 361.025 C 1674.74 394.765 1676.23 433.667 1653.67 462.46 C 1649.99 467.161 1649.21 473.273 1642.9 473.339 C 1611.21 472.801 1595.27 479.703 1573.58 502.979 C 1536.99 503.03 1503.92 500.959 1468.9 490.193 C 1443.1 482.264 1443.23 482.161 1428.68 460.676 C 1420.97 449.294 1396.27 438.144 1383.49 431.426 C 1381.4 427.899 1379.8 424.102 1378.74 420.143 C 1367.24 378.613 1383.99 348.941 1403.25 315.392 C 1390.36 299.688 1380.05 282.298 1392.06 261.283 C 1396.84 252.918 1405.74 248.52 1414.86 246.199 z"/>
<path transform="translate(0,0)" fill="rgb(246,239,231)" d="M 1514.84 385.073 C 1523.94 384.612 1535.84 383.282 1543.98 387.2 C 1558.28 400.559 1565.55 413.226 1566.37 433.011 C 1567.43 458.659 1547.9 474.904 1523.14 474.064 C 1506.79 473.509 1489.15 470.598 1476.96 458.609 C 1470.53 452.138 1469.87 447.573 1467.68 439.159 C 1461.41 422.993 1470.92 395.625 1488.28 390.562 C 1499.31 386.455 1502.98 385.921 1514.84 385.073 z"/>
<path transform="translate(0,0)" fill="rgb(158,154,154)" d="M 1543.98 387.2 C 1558.28 400.559 1565.55 413.226 1566.37 433.011 C 1567.43 458.659 1547.9 474.904 1523.14 474.064 C 1506.79 473.509 1489.15 470.598 1476.96 458.609 C 1470.53 452.138 1469.87 447.573 1467.68 439.159 L 1469.63 438.536 L 1470.78 439.79 C 1470.86 443.759 1474.15 453.082 1477.03 455.936 C 1493.72 472.438 1534.06 477.208 1552.36 461.815 C 1559.16 456.091 1562.76 445.88 1563.25 437.135 C 1564.13 421.705 1560.16 407.337 1549.34 395.947 C 1546.09 392.391 1545.89 391.435 1543.98 387.2 z"/>
<path transform="translate(0,0)" fill="rgb(158,154,154)" d="M 1514.84 385.073 L 1514.07 386.434 C 1505.09 388.52 1496.22 390.295 1488.57 395.291 C 1487.54 395.968 1487.44 395.715 1486.49 395.244 C 1487.95 392.744 1488.06 393.233 1488.28 390.562 C 1499.31 386.455 1502.98 385.921 1514.84 385.073 z"/>
<path transform="translate(0,0)" fill="rgb(0,0,0)" d="M 1518.55 391.856 C 1525.86 391.944 1529.66 394.166 1534.81 399.027 C 1555.23 418.3 1527.89 414.715 1529.23 430.002 C 1535.6 435.786 1546.85 428.397 1548.44 434.672 C 1553.55 454.9 1536.18 458.183 1521.58 452.579 C 1511.95 444.464 1502.77 452.722 1491.85 447.371 C 1484.59 443.812 1484.65 432.28 1488.57 426.478 C 1496.16 421.725 1499.35 427.502 1508.3 427.062 L 1509.78 425.376 C 1509.95 418.412 1506.03 412.301 1502.75 406.252 C 1508.39 398.468 1510.47 396.595 1518.55 391.856 z"/>
<path transform="translate(0,0)" fill="rgb(254,168,165)" d="M 1417.18 392.271 C 1434.71 390.619 1442.92 394.07 1448.26 411.191 C 1447.52 412.263 1446.76 413.317 1445.97 414.351 C 1440.81 421.062 1437.77 421.639 1430.03 422.696 C 1404.43 425.258 1381.63 398.992 1417.18 392.271 z"/>
<path transform="translate(0,0)" fill="rgb(254,168,165)" d="M 1600.59 425.278 C 1611.68 424.577 1635.79 423.905 1637.09 441.307 C 1637.5 446.868 1631.01 451.849 1627.05 455.322 L 1626.46 455.524 C 1608.07 462.045 1576.05 436.808 1600.59 425.278 z"/>
<path transform="translate(0,0)" fill="rgb(0,0,0)" d="M 1460.25 356.948 C 1470.75 357.11 1474.06 365.616 1477.96 373.816 C 1473.42 380.402 1471.61 383.689 1464.2 387.217 C 1443.26 386.59 1440.78 365.578 1460.25 356.948 z"/>
<path transform="translate(0,0)" fill="rgb(0,0,0)" d="M 1587.67 378.957 C 1604.18 378.014 1614.3 396.927 1596.02 407.389 C 1577.86 413.457 1569.3 390.264 1587.67 378.957 z"/>
<path transform="translate(0,0)" fill="rgb(254,254,254)" d="M 1630.54 495.213 C 1636.79 494.626 1646.22 495.675 1651.43 498.819 C 1672.87 511.76 1654.98 539.835 1640.21 550.16 C 1631.58 556.189 1626.33 558.288 1616.87 560.907 C 1565.7 569.275 1571.8 507.205 1630.54 495.213 z"/>
<path transform="translate(0,0)" fill="rgb(254,254,254)" d="M 1365.49 457.232 C 1401.32 455.646 1418.23 472.33 1425.39 505.955 C 1422.71 517.096 1421.3 522.633 1410.34 527.174 C 1374.45 538.812 1330.49 475.305 1365.49 457.232 z"/>
</svg>